<svg width="1200" height="630" viewBox="0 0 1200 630" xmlns="http://www.w3.org/2000/svg">
  <defs>
    <linearGradient id="bg" x1="0%" y1="0%" x2="100%" y2="100%">
      <stop offset="0%" style="stop-color:#0f172a;stop-opacity:1" />
      <stop offset="50%" style="stop-color:#1e293b;stop-opacity:1" />
      <stop offset="100%" style="stop-color:#064e3b;stop-opacity:1" />
    </linearGradient>
    <linearGradient id="accent" x1="0%" y1="0%" x2="100%" y2="0%">
      <stop offset="0%" style="stop-color:#10b981;stop-opacity:1" />
      <stop offset="100%" style="stop-color:#34d399;stop-opacity:1" />
    </linearGradient>
  </defs>
  <!-- Background -->
  <rect width="1200" height="630" fill="url(#bg)" />
  <!-- Accent bar -->
  <rect x="0" y="0" width="1200" height="6" fill="url(#accent)" />
  <!-- Icon -->
  <text x="100" y="260" font-size="80" font-family="system-ui, sans-serif">📖</text>
  <!-- Main title -->
  <text x="100" y="340" font-family="system-ui, -apple-system, sans-serif" font-weight="800" font-size="60" fill="#f8fafc">Developer Guides &amp; Articles</text>
  <!-- Subtitle -->
  <text x="100" y="405" font-family="system-ui, -apple-system, sans-serif" font-weight="400" font-size="28" fill="#94a3b8">In-depth tutorials, best practices, and tool comparisons</text>
  <!-- Tags -->
  <rect x="100" y="440" width="110" height="38" rx="19" fill="#10b981" opacity="0.15"/>
  <rect x="100" y="440" width="110" height="38" rx="19" fill="none" stroke="#10b981" stroke-width="1.5"/>
  <text x="155" y="465" font-family="system-ui, -apple-system, sans-serif" font-size="16" fill="#34d399" text-anchor="middle">#backend</text>
  <rect x="224" y="440" width="100" height="38" rx="19" fill="#6366f1" opacity="0.15"/>
  <rect x="224" y="440" width="100" height="38" rx="19" fill="none" stroke="#6366f1" stroke-width="1.5"/>
  <text x="274" y="465" font-family="system-ui, -apple-system, sans-serif" font-size="16" fill="#818cf8" text-anchor="middle">#api</text>
  <rect x="338" y="440" width="126" height="38" rx="19" fill="#f59e0b" opacity="0.15"/>
  <rect x="338" y="440" width="126" height="38" rx="19" fill="none" stroke="#f59e0b" stroke-width="1.5"/>
  <text x="401" y="465" font-family="system-ui, -apple-system, sans-serif" font-size="16" fill="#fbbf24" text-anchor="middle">#devtools</text>
  <!-- Badge -->
  <rect x="100" y="498" width="230" height="46" rx="23" fill="#10b981" opacity="0.1"/>
  <rect x="100" y="498" width="230" height="46" rx="23" fill="none" stroke="#10b981" stroke-width="1.5"/>
  <text x="215" y="527" font-family="system-ui, -apple-system, sans-serif" font-weight="600" font-size="18" fill="#34d399" text-anchor="middle">devplaybook.cc/blog</text>
  <!-- Right decorative article lines -->
  <rect x="700" y="100" width="400" height="420" rx="12" fill="#0f172a" opacity="0.8" stroke="#475569" stroke-width="1.5"/>
  <rect x="728" y="140" width="160" height="18" rx="4" fill="#10b981" opacity="0.3"/>
  <rect x="728" y="174" width="340" height="12" rx="3" fill="#475569" opacity="0.7"/>
  <rect x="728" y="196" width="300" height="12" rx="3" fill="#475569" opacity="0.7"/>
  <rect x="728" y="218" width="320" height="12" rx="3" fill="#475569" opacity="0.7"/>
  <rect x="728" y="252" width="340" height="12" rx="3" fill="#475569" opacity="0.5"/>
  <rect x="728" y="274" width="280" height="12" rx="3" fill="#475569" opacity="0.5"/>
  <rect x="728" y="296" width="310" height="12" rx="3" fill="#475569" opacity="0.5"/>
  <rect x="728" y="330" width="340" height="12" rx="3" fill="#475569" opacity="0.3"/>
  <rect x="728" y="352" width="260" height="12" rx="3" fill="#475569" opacity="0.3"/>
  <rect x="728" y="374" width="300" height="12" rx="3" fill="#475569" opacity="0.3"/>
  <rect x="728" y="408" width="340" height="12" rx="3" fill="#475569" opacity="0.2"/>
  <rect x="728" y="430" width="200" height="12" rx="3" fill="#475569" opacity="0.2"/>
  <rect x="728" y="470" width="140" height="36" rx="8" fill="#10b981" opacity="0.2"/>
  <text x="798" y="494" font-family="system-ui, -apple-system, sans-serif" font-size="14" fill="#34d399" text-anchor="middle">Read more →</text>
</svg>
